<svg version="1.1" id="Layer_1" xmlns:x="ns_extend;" xmlns:i="ns_ai;" xmlns:graph="ns_graphs;" xmlns="http://www.w3.org/2000/svg" xmlns:xlink="http://www.w3.org/1999/xlink" x="0px" y="0px" viewBox="0 0 52.9 46.4" style="enable-background:new 0 0 52.9 46.4;" xml:space="preserve">
 <style type="text/css">
  .st0{fill:#FFC127;}
 </style>
 <metadata>
  <sfw xmlns="ns_sfw;">
   <slices>
   </slices>
   <sliceSourceBounds bottomLeftOrigin="true" height="46.4" width="52.9" x="211.8" y="60.6">
   </sliceSourceBounds>
  </sfw>
 </metadata>
 <g>
  <path class="st0" d="M44.8,9h-7.5l3.9,6.5L44.8,9z">
  </path>
  <path d="M49,34.9L44,26.4L28,0L0,46.4h15c2,0,4-0.5,5.7-1.5c1.7-1,3.2-2.3,4.2-4l7.7-12.8l-4.3-7.1L19,36.5
		c-0.5,0.9-1.3,1.6-2.2,2.1c-0.9,0.5-1.9,0.8-2.9,0.8h-1.1L28,14.1l19.4,32.2h5.5v-5.1L49,34.9L49,34.9z">
  </path>
 </g>
</svg>